# File created by Blade
# Date/Time:  Fri Jan 16 19:32:17 2015
# Frame Rate: 120.000 fps
#------------------------------------------------------
:FULLY-SPECIFIED
:DEGREES
603
root 19.766772 35.437665 -19.867341 10.079215 11.925167 0.344852
Spine -22.266791 -9.081386 -2.158771
Head 17.126113 -4.518890 6.322983
LeftShoulder -5.607344 6.294355 -0.059401
LeftArm -98.362981 48.908282 -173.739665
LeftForeArm 61.061953 -0.000000 124.322781
LeftHand 13.082238 -0.000000 -12.891258
LeftHandThumb1 -26.253704 0.000000 33.147579
RightShoulder -11.611569 13.544127 -30.714892
RightArm -279.163989 79.744421 -293.823563
RightForeArm -10.426834 -0.000000 65.117355
RightHand -3.322643 -0.000000 -20.576203
RightHandThumb1 -24.326973 -0.000000 -32.862282
LeftUpLeg -0.698631 -0.021511 1.062147
LeftLeg -6.998147 -0.000000 0.000000
LeftFoot -20.004265 26.558722 -13.393201
LeftToeBase 25.698793 -0.000000 -0.000000
RightUpLeg 2.012699 -17.063388 -1.471835
RightLeg -4.612533 -0.000000 0.000000
RightFoot -23.705156 -24.904246 21.108580
RightToeBase 23.772543 -0.000000 -0.000000
604
root 19.766801 35.437388 -19.870807 10.078034 11.922391 0.357540
Spine -22.253508 -9.134967 -2.113220
Head 17.112300 -4.541110 6.323262
LeftShoulder -5.677175 6.273947 -0.048612
LeftArm -98.334971 48.954455 -173.736618
LeftForeArm 61.110907 -0.000000 124.366345
LeftHand 13.063093 -0.000000 -12.929731
LeftHandThumb1 -26.253704 0.000000 33.147579
RightShoulder -11.585950 13.541596 -30.671958
RightArm -280.247156 79.725870 -294.935993
RightForeArm -10.689664 -0.000000 64.721416
RightHand -3.397370 -0.000000 -20.621597
RightHandThumb1 -24.326973 -0.000000 -32.862282
LeftUpLeg -0.704045 0.009553 1.054918
LeftLeg -6.979466 -0.000000 0.000000
LeftFoot -20.021294 26.445254 -13.432333
LeftToeBase 25.704347 -0.000000 -0.000000
RightUpLeg 2.021146 -17.038729 -1.489322
RightLeg -4.626359 -0.000000 0.000000
RightFoot -23.697504 -24.905541 21.085800
RightToeBase 23.776297 -0.000000 -0.000000
605
root 19.767190 35.437817 -19.875253 10.085581 11.918424 0.368635
Spine -22.252810 -9.157605 -2.075992
Head 17.096025 -4.577473 6.341139
LeftShoulder -5.709853 6.258848 -0.042448
LeftArm -98.251325 48.986362 -173.708882
LeftForeArm 61.119292 -0.000000 124.406260
LeftHand 13.099618 0.000000 -13.050566
LeftHandThumb1 -26.253704 0.000000 33.147579
RightShoulder -11.585625 13.516415 -30.641665
RightArm -281.279708 79.708113 -296.003220
RightForeArm -10.921281 -0.000000 64.306321
RightHand -3.438734 -0.000000 -20.717950
RightHandThumb1 -24.326973 -0.000000 -32.862282
LeftUpLeg -0.726370 0.041679 1.038583
LeftLeg -6.956644 -0.000000 0.000000
LeftFoot -20.011931 26.416000 -13.428252
LeftToeBase 25.655892 -0.000000 -0.000000
RightUpLeg 2.013306 -17.000170 -1.500912
RightLeg -4.632160 -0.000000 0.000000
RightFoot -23.704190 -24.932004 21.084015
RightToeBase 23.771032 -0.000000 -0.000000
606
root 19.766666 35.438188 -19.879931 10.092306 11.913330 0.376799
Spine -22.247349 -9.174170 -2.042841
Head 17.072555 -4.609283 6.365968
LeftShoulder -5.731689 6.251123 -0.031560
LeftArm -98.134942 49.023932 -173.657420
LeftForeArm 61.065678 -0.000000 124.444378
LeftHand 13.021063 -0.000000 -13.269268
LeftHandThumb1 -26.253704 0.000000 33.147579
RightShoulder -11.589905 13.488750 -30.618760
RightArm -282.279235 79.697146 -297.016186
RightForeArm -11.252209 -0.000000 63.950738
RightHand -3.386687 0.000000 -20.533761
RightHandThumb1 -24.326973 -0.000000 -32.862282
LeftUpLeg -0.748244 0.077882 1.026070
LeftLeg -6.940975 -0.000000 0.000000
LeftFoot -20.011746 26.387662 -13.428642
LeftToeBase 25.699425 -0.000000 -0.000000
RightUpLeg 2.002796 -16.959907 -1.510950
RightLeg -4.634583 -0.000000 0.000000
RightFoot -23.704273 -24.950582 21.075241
RightToeBase 23.754724 -0.000000 -0.000000
607
root 19.766529 35.438960 -19.884836 10.101231 11.908868 0.384181
Spine -22.244229 -9.192854 -2.009420
Head 17.040102 -4.628790 6.408400
LeftShoulder -5.750372 6.222336 -0.035426
LeftArm -98.022810 49.040656 -173.572261
LeftForeArm 60.923943 -0.000000 124.450889
LeftHand 13.004150 -0.000000 -13.363288
LeftHandThumb1 -26.253704 0.000000 33.147579
RightShoulder -11.593917 13.443907 -30.594201
RightArm -283.185613 79.693520 -297.956531
RightForeArm -11.459562 -0.000000 63.572120
RightHand -3.457154 0.000000 -20.527959
RightHandThumb1 -24.326973 -0.000000 -32.862282
LeftUpLeg -0.774826 0.119190 1.004040
LeftLeg -6.932421 -0.000000 0.000000
LeftFoot -19.975982 26.450348 -13.363932
LeftToeBase 25.740817 -0.000000 -0.000000
RightUpLeg 1.986742 -16.932304 -1.517235
RightLeg -4.632925 -0.000000 0.000000
RightFoot -23.698237 -24.967462 21.059911
RightToeBase 23.770813 -0.000000 -0.000000
608
root 19.765786 35.440022 -19.889449 10.115245 11.899070 0.385709
Spine -22.247352 -9.205982 -1.966559
Head 16.997964 -4.642358 6.439865
LeftShoulder -5.790291 6.189999 -0.066421
LeftArm -97.881496 49.027691 -173.423050
LeftForeArm 60.780226 -0.000000 124.469188
LeftHand 12.989681 -0.000000 -13.469355
LeftHandThumb1 -26.253704 0.000000 33.147579
RightShoulder -11.602038 13.380892 -30.582790
RightArm -283.798691 79.701452 -298.572429
RightForeArm -11.659203 0.000000 63.207861
RightHand -3.250138 -0.000000 -20.335321
RightHandThumb1 -24.326973 -0.000000 -32.862282
LeftUpLeg -0.806247 0.147564 0.997164
LeftLeg -6.913148 -0.000000 0.000000
LeftFoot -19.972598 26.449284 -13.361381
LeftToeBase 25.708050 -0.000000 -0.000000
RightUpLeg 1.957370 -16.915533 -1.514672
RightLeg -4.622245 -0.000000 0.000000
RightFoot -23.698877 -24.977966 21.051060
RightToeBase 23.796201 -0.000000 -0.000000
609
root 19.765260 35.441097 -19.892331 10.113843 11.878890 0.388797
Spine -22.233765 -9.194262 -1.939275
Head 16.966080 -4.682429 6.465845
LeftShoulder -5.823903 6.179374 -0.082260
LeftArm -97.741525 49.067738 -173.254467
LeftForeArm 60.701078 -0.000000 124.493642
LeftHand 12.968416 0.000000 -13.550240
LeftHandThumb1 -26.253704 0.000000 33.147579
RightShoulder -11.617415 13.400893 -30.585464
RightArm -285.047295 79.677836 -299.853061
RightForeArm -11.804809 0.000000 62.842281
RightHand -3.353952 0.000000 -20.368576
RightHandThumb1 -24.326973 -0.000000 -32.862282
LeftUpLeg -0.811487 0.169674 0.989632
LeftLeg -6.904909 -0.000000 0.000000
LeftFoot -19.964016 26.441427 -13.367264
LeftToeBase 25.683731 -0.000000 -0.000000
RightUpLeg 1.946001 -16.887341 -1.519723
RightLeg -4.610915 -0.000000 0.000000
RightFoot -23.697845 -24.987614 21.055230
RightToeBase 23.790628 -0.000000 -0.000000
610
root 19.764528 35.442030 -19.896407 10.118360 11.866588 0.386161
Spine -22.223744 -9.184207 -1.903377
Head 16.918285 -4.728917 6.487506
LeftShoulder -5.859553 6.158573 -0.113571
LeftArm -97.639614 49.078581 -173.134698
LeftForeArm 60.629442 -0.000000 124.520708
LeftHand 12.955873 -0.000000 -13.579695
LeftHandThumb1 -26.253704 0.000000 33.147579
RightShoulder -11.633936 13.395226 -30.584561
RightArm -285.967222 79.669635 -300.817053
RightForeArm -11.956581 -0.000000 62.486400
RightHand -3.425552 0.000000 -20.348520
RightHandThumb1 -24.326973 -0.000000 -32.862282
LeftUpLeg -0.830478 0.188354 0.988949
LeftLeg -6.887208 -0.000000 0.000000
LeftFoot -19.969924 26.435895 -13.372320
LeftToeBase 25.729277 -0.000000 -0.000000
RightUpLeg 1.924883 -16.882871 -1.514759
RightLeg -4.599474 -0.000000 0.000000
RightFoot -23.688817 -24.980674 21.045812
RightToeBase 23.774285 -0.000000 -0.000000
611
root 19.762936 35.443011 -19.899273 10.119808 11.851859 0.381684
Spine -22.215822 -9.164037 -1.872801
Head 16.876358 -4.758872 6.510485
LeftShoulder -5.908504 6.149602 -0.159429
LeftArm -97.580300 49.082590 -173.048727
LeftForeArm 60.563708 -0.000000 124.546752
LeftHand 12.892957 -0.000000 -13.543647
LeftHandThumb1 -26.253704 0.000000 33.147579
RightShoulder -11.657020 13.424456 -30.591985
RightArm -286.989360 79.646156 -301.887550
RightForeArm -12.008088 -0.000000 62.135643
RightHand -3.452795 -0.000000 -20.172181
RightHandThumb1 -24.326973 -0.000000 -32.862282
LeftUpLeg -0.842964 0.181880 1.002137
LeftLeg -6.861309 -0.000000 0.000000
LeftFoot -20.002592 26.367936 -13.439562
LeftToeBase 25.675214 -0.000000 -0.000000
RightUpLeg 1.908162 -16.877752 -1.507818
RightLeg -4.589255 -0.000000 0.000000
RightFoot -23.684446 -24.975068 21.043540
RightToeBase 23.785281 -0.000000 -0.000000
612
root 19.762650 35.443870 -19.902289 10.123833 11.827549 0.382626
Spine -22.210360 -9.138933 -1.849131
Head 16.837684 -4.802435 6.523336
LeftShoulder -5.956597 6.155246 -0.175569
LeftArm -97.481861 49.107124 -172.968317
LeftForeArm 60.438260 -0.000000 124.549611
LeftHand 12.807188 -0.000000 -13.576026
LeftHandThumb1 -26.253704 0.000000 33.147579
RightShoulder -11.677203 13.455005 -30.600275
RightArm -287.952099 79.616282 -302.900723
RightForeArm -12.070257 0.000000 61.782704
RightHand -3.419875 -0.000000 -20.099492
RightHandThumb1 -24.326973 -0.000000 -32.862282
LeftUpLeg -0.852156 0.203916 0.987370
LeftLeg -6.868811 -0.000000 0.000000
LeftFoot -19.974536 26.454262 -13.397796
LeftToeBase 25.660695 -0.000000 -0.000000
RightUpLeg 1.896524 -16.863948 -1.509141
RightLeg -4.592792 -0.000000 0.000000
RightFoot -23.685917 -24.967078 21.059222
RightToeBase 23.788305 -0.000000 -0.000000
613
root 19.761356 35.444712 -19.905069 10.134475 11.813328 0.380386
Spine -22.215809 -9.116550 -1.820906
Head 16.806472 -4.833346 6.532207
LeftShoulder -6.005871 6.131274 -0.198737
LeftArm -97.366315 49.091904 -172.851716
LeftForeArm 60.220948 -0.000000 124.548569
LeftHand 12.762960 -0.000000 -13.705654
LeftHandThumb1 -26.253704 0.000000 33.147579
RightShoulder -11.707813 13.446544 -30.610703
RightArm -288.722323 79.597177 -303.717840
RightForeArm -12.118319 -0.000000 61.432345
RightHand -3.276681 -0.000000 -20.037381
RightHandThumb1 -24.326973 -0.000000 -32.862282
LeftUpLeg -0.869879 0.197565 0.988547
LeftLeg -6.860705 -0.000000 0.000000
LeftFoot -19.984758 26.477912 -13.405640
LeftToeBase 25.675044 -0.000000 -0.000000
RightUpLeg 1.871374 -16.872869 -1.501572
RightLeg -4.583344 -0.000000 0.000000
RightFoot -23.662777 -24.959305 21.025761
RightToeBase 23.758155 -0.000000 -0.000000
